<svg id="Layer_1" data-name="Layer 1" xmlns="http://www.w3.org/2000/svg" xmlns:xlink="http://www.w3.org/1999/xlink" viewBox="0 0 353.83 510.6"><defs><style>.cls-1{fill:url(#linear-gradient);}.cls-2{fill:url(#linear-gradient-2);}.cls-3{fill:url(#linear-gradient-3);}.cls-4{fill:url(#linear-gradient-4);}</style><linearGradient id="linear-gradient" x1="353.83" y1="133.47" x2="140.02" y2="133.47" gradientUnits="userSpaceOnUse"><stop offset="0" stop-color="#cdae2c"/><stop offset="0" stop-color="#cfb02b" stop-opacity="0.98"/><stop offset="0.03" stop-color="#dbba25" stop-opacity="0.88"/><stop offset="0.06" stop-color="#e2bf22" stop-opacity="0.82"/><stop offset="0.16" stop-color="#e4c121" stop-opacity="0.8"/><stop offset="0.4" stop-color="#cdae2c" stop-opacity="0.9"/><stop offset="0.41" stop-color="#cfb02b" stop-opacity="0.91"/><stop offset="0.43" stop-color="#d9b826" stop-opacity="0.95"/><stop offset="0.46" stop-color="#dfbd23" stop-opacity="0.98"/><stop offset="0.5" stop-color="#e3c022"/><stop offset="0.6" stop-color="#e4c121"/><stop offset="0.68" stop-color="#e0bd23"/><stop offset="0.77" stop-color="#d3b329"/><stop offset="0.8" stop-color="#cdae2c"/><stop offset="0.86" stop-color="#c9ab2c"/><stop offset="0.92" stop-color="#bda12e"/><stop offset="0.98" stop-color="#aa9230"/><stop offset="1" stop-color="#a28b31"/></linearGradient><linearGradient id="linear-gradient-2" x1="353.83" y1="293.42" x2="140.38" y2="293.42" xlink:href="#linear-gradient"/><linearGradient id="linear-gradient-3" x1="256.3" y1="289.22" x2="0" y2="289.22" xlink:href="#linear-gradient"/><linearGradient id="linear-gradient-4" x1="525.08" y1="514.6" x2="241.93" y2="514.6" xlink:href="#linear-gradient"/></defs><title>logo</title><polygon class="cls-1" points="193.7 266.94 140.02 213.27 353.83 0 353.83 106.81 193.7 266.94"/><polygon class="cls-2" points="140.38 213.63 194.05 159.95 353.83 319.73 353.65 426.89 140.38 213.63"/><polygon class="cls-3" points="256.3 353.29 158.54 353.29 0 353.29 76.44 276.85 128.15 225.14 178.25 275.24 256.3 353.29"/><path class="cls-4" d="M241.93,485.3h15a39.34,39.34,0,0,1,10.75,1.11,10.64,10.64,0,0,1,5.9,4.47q2.25,3.38,2.25,10.85,0,5.07-1.59,7.06c-1.06,1.33-3.14,2.35-6.26,3.07,3.47.78,5.83,2.08,7.06,3.9s1.86,4.61,1.86,8.37v5.35q0,5.87-1.34,8.68a7.2,7.2,0,0,1-4.26,3.85q-2.92,1-12,1H241.93Zm15,9.88V508l1.5,0c1.47,0,2.41-.37,2.82-1.09s.6-2.8.6-6.23a9.87,9.87,0,0,0-.5-3.79,2.37,2.37,0,0,0-1.3-1.38A11.8,11.8,0,0,0,256.94,495.18Zm0,21.83v16.16c2.12-.08,3.47-.41,4.05-1s.87-2.06.87-4.39v-5.39c0-2.47-.26-4-.78-4.49S259.18,517.08,256.94,517Z" transform="translate(-205.53 -33.3)"/><path class="cls-4" d="M296.67,485.3v7.53H281.83V485.3Zm0,10.42V543H281.83V495.72Z" transform="translate(-205.53 -33.3)"/><path class="cls-4" d="M316.68,485.3V543H301.84V485.3Z" transform="translate(-205.53 -33.3)"/><path class="cls-4" d="M336.69,485.3V543H321.85V485.3Z" transform="translate(-205.53 -33.3)"/><path class="cls-4" d="M354.73,514.05H341.22v-3.17a22.53,22.53,0,0,1,1.26-8.48,11.87,11.87,0,0,1,5.08-5.26,19.17,19.17,0,0,1,9.92-2.28q7.31,0,11,2.59a10.09,10.09,0,0,1,4.46,6.34q.75,3.76.75,15.5V543h-14v-4.21a8.81,8.81,0,0,1-8.38,5.07,12.23,12.23,0,0,1-6.94-2.12q-3.15-2.13-3.15-9.29V528.6c0-3.54.55-6,1.67-7.24s3.89-2.78,8.31-4.49c4.73-1.86,7.27-3.11,7.6-3.75a10,10,0,0,0,.5-3.92,13.4,13.4,0,0,0-.55-4.83,1.91,1.91,0,0,0-1.84-1.13c-1,0-1.58.32-1.82.95a19,19,0,0,0-.36,4.9Zm4.57,6.49q-3.46,2.54-4,4.24a16.82,16.82,0,0,0-.56,4.93,14.38,14.38,0,0,0,.48,4.74,1.9,1.9,0,0,0,1.91,1.07,1.77,1.77,0,0,0,1.77-.84,13.65,13.65,0,0,0,.41-4.4Z" transform="translate(-205.53 -33.3)"/><path class="cls-4" d="M393.07,495.72l-.57,6.22q3.13-6.69,9.1-7.08v16.66a12,12,0,0,0-5.82,1.07,4.5,4.5,0,0,0-2.28,3,54.14,54.14,0,0,0-.43,8.8V543H378.66V495.72Z" transform="translate(-205.53 -33.3)"/><path class="cls-4" d="M437.58,485.3V543H423.17v-3.43a15,15,0,0,1-4.35,3.22A11.16,11.16,0,0,1,414,543.9a9.69,9.69,0,0,1-5.81-1.77,7.86,7.86,0,0,1-3.16-4.08,29.25,29.25,0,0,1-.69-7.56V508.34a30.13,30.13,0,0,1,.69-7.74,7.69,7.69,0,0,1,3.2-4,10.2,10.2,0,0,1,6-1.73,11.8,11.8,0,0,1,8.95,3.86V485.3Zm-14.41,22.33a9.21,9.21,0,0,0-.44-3.5,1.8,1.8,0,0,0-1.77-.89,1.82,1.82,0,0,0-1.73.8,9.14,9.14,0,0,0-.44,3.59v23.18a10.87,10.87,0,0,0,.42,3.8,1.64,1.64,0,0,0,1.64.91,1.84,1.84,0,0,0,1.86-1,15.66,15.66,0,0,0,.46-5Z" transform="translate(-205.53 -33.3)"/><path class="cls-4" d="M466.3,523.28,463.69,543h-7.81l-3-19.76h5.42q.94,8.16,1.35,13.82.4-5.72.85-10.14l.35-3.68Z" transform="translate(-205.53 -33.3)"/><path class="cls-4" d="M472.79,523.28v13.21q0,3-.06,3.81a3,3,0,0,1-.56,1.53,2.49,2.49,0,0,1-1.35.95,9,9,0,0,1-2.55.26h-2.58v-3.45l.68,0a1.28,1.28,0,0,0,.86-.27,1,1,0,0,0,.37-.66c0-.26,0-.77,0-1.52v-13.9Z" transform="translate(-205.53 -33.3)"/><path class="cls-4" d="M474.78,523.28H480a12.13,12.13,0,0,1,3.23.33,3.69,3.69,0,0,1,1.7.95,3.34,3.34,0,0,1,.77,1.51,13.82,13.82,0,0,1,.2,2.74v1.72a7.2,7.2,0,0,1-.39,2.76,2.66,2.66,0,0,1-1.44,1.33,6.74,6.74,0,0,1-2.73.46h-1.37v8h-5.14Zm5.14,3.38v5h.37a1.21,1.21,0,0,0,1-.34,2.63,2.63,0,0,0,.27-1.45v-1.62a1.85,1.85,0,0,0-.32-1.32A1.93,1.93,0,0,0,479.92,526.66Z" transform="translate(-205.53 -33.3)"/><path class="cls-4" d="M487.33,523.28h5.17a12.13,12.13,0,0,1,3.23.33,3.69,3.69,0,0,1,1.7.95,3.45,3.45,0,0,1,.77,1.51,13.82,13.82,0,0,1,.2,2.74v1.72a7.2,7.2,0,0,1-.39,2.76,2.66,2.66,0,0,1-1.44,1.33,6.74,6.74,0,0,1-2.73.46h-1.38v8h-5.13Zm5.13,3.38v5h.38a1.22,1.22,0,0,0,1-.34,2.63,2.63,0,0,0,.27-1.45v-1.62a1.9,1.9,0,0,0-.32-1.32A2,2,0,0,0,492.46,526.66Z" transform="translate(-205.53 -33.3)"/><path class="cls-4" d="M499.87,523.28h3.64a27.59,27.59,0,0,1,4.93.28,3.4,3.4,0,0,1,2.1,1.44,6.49,6.49,0,0,1,.81,3.68,5.69,5.69,0,0,1-.58,3.1,3,3,0,0,1-2.25,1,3.89,3.89,0,0,1,2.05,1,3.09,3.09,0,0,1,.65,1.17,17.69,17.69,0,0,1,.13,2.92V543h-4.77v-6.56a4.66,4.66,0,0,0-.25-2c-.17-.25-.61-.38-1.32-.38V543h-5.14Zm5.14,3.38v4.4a2.26,2.26,0,0,0,1.22-.24c.23-.16.35-.67.35-1.55v-1.08a1.64,1.64,0,0,0-.34-1.23A1.87,1.87,0,0,0,505,526.66Z" transform="translate(-205.53 -33.3)"/><path class="cls-4" d="M525.08,534.85a41,41,0,0,1-.14,4.22,4.75,4.75,0,0,1-2.87,3.84,7.23,7.23,0,0,1-2.93.55,7.35,7.35,0,0,1-2.85-.52,4.74,4.74,0,0,1-2.95-3.81,40.94,40.94,0,0,1-.15-4.28v-3.38c0-2,0-3.39.14-4.22a4.81,4.81,0,0,1,.88-2.26,4.69,4.69,0,0,1,2-1.57,7.19,7.19,0,0,1,2.93-.55,7.54,7.54,0,0,1,2.85.51,4.78,4.78,0,0,1,3,3.82c.09.81.14,2.24.14,4.27Zm-5.14-6.49a6.29,6.29,0,0,0-.15-1.77.61.61,0,0,0-.63-.38.71.71,0,0,0-.62.31,4.5,4.5,0,0,0-.21,1.84v9.23a9.25,9.25,0,0,0,.14,2.12.62.62,0,0,0,.66.4.64.64,0,0,0,.67-.46,10.49,10.49,0,0,0,.14-2.21Z" transform="translate(-205.53 -33.3)"/></svg>